/* XPM */
static char *_b70309e67914de38a221f081725469fKt5shawtO3tjqQ30[] = {
/* columns rows colors chars-per-pixel */
"60 60 229 2 ",
"   c #12122D",
".  c #1A162C",
"X  c #1B1A34",
"o  c #1C1B3B",
"O  c #171637",
"+  c #0D0E2A",
"@  c #211D3C",
"#  c #211D33",
"$  c #24233C",
"%  c #28243C",
"&  c #1C1A44",
"*  c #1B1A45",
"=  c #211E47",
"-  c #251F51",
";  c #1F2140",
":  c #242444",
">  c #2A2943",
",  c #24224C",
"<  c #2B294B",
"1  c #343348",
"2  c #272552",
"3  c #2C2B55",
"4  c #2D2C5B",
"5  c #282852",
"6  c #302E5C",
"7  c #312F57",
"8  c #34315C",
"9  c #393855",
"0  c #30304E",
"q  c #342E65",
"w  c #373364",
"e  c #413F57",
"r  c #40384D",
"t  c #403B66",
"y  c #3F4055",
"u  c #434C4C",
"i  c #4D4A5C",
"p  c #47465A",
"a  c #514B5D",
"s  c #4C5656",
"d  c #535A5D",
"f  c #4B4965",
"g  c #524F61",
"h  c #555265",
"j  c #5C5B6B",
"k  c #595869",
"l  c #5B5971",
"z  c #635E74",
"x  c #5B6265",
"c  c #5F6076",
"v  c #61636D",
"b  c #626B6B",
"n  c #6A6C69",
"m  c #72686E",
"M  c #656373",
"N  c #6A667A",
"B  c #766B7A",
"V  c #6A7176",
"C  c #777579",
"Z  c #6B716E",
"A  c #817A7D",
"S  c #7C837E",
"D  c #85847C",
"F  c #6C6B86",
"G  c #736D83",
"H  c #796E86",
"J  c #7B7284",
"K  c #7C7D83",
"L  c #7C758B",
"P  c #767688",
"I  c #7C7893",
"U  c #716C96",
"Y  c #827485",
"T  c #827C84",
"R  c #84768B",
"E  c #847C8D",
"W  c #8A7B8D",
"Q  c #897D83",
"!  c #847C93",
"~  c #8B7D92",
"^  c #837893",
"/  c #7E8388",
"(  c #7E8091",
")  c #838285",
"_  c #898686",
"`  c #858489",
"'  c #8B858B",
"]  c #8C8A8D",
"[  c #88898A",
"{  c #918C8E",
"}  c #93818E",
"|  c #858294",
" . c #8C8294",
".. c #8D8C92",
"X. c #8C859B",
"o. c #8D8A9A",
"O. c #878399",
"+. c #928495",
"@. c #928C94",
"#. c #9D8C95",
"$. c #92859A",
"%. c #958A9B",
"&. c #9B8D9C",
"*. c #8E9395",
"=. c #939194",
"-. c #94949C",
";. c #9B929D",
":. c #959A9C",
">. c #999A9A",
",. c #91918F",
"<. c #A19299",
"1. c #A5A19E",
"2. c #8E8AA1",
"3. c #948DA3",
"4. c #9A8EA3",
"5. c #938CA8",
"6. c #9592A4",
"7. c #9B93A4",
"8. c #9C9BA3",
"9. c #9B95AB",
"0. c #9D9AAC",
"q. c #9796A8",
"w. c #9E99B2",
"e. c #A095A5",
"r. c #A39DA4",
"t. c #A195AC",
"y. c #A39BAC",
"u. c #AA9EAC",
"i. c #A39DB3",
"p. c #A79EB7",
"a. c #9EA1A9",
"s. c #A5A3A5",
"d. c #A4A3AC",
"f. c #AAA5AC",
"g. c #A4ABAB",
"h. c #ABABAD",
"j. c #A9A3A5",
"k. c #A6A2B4",
"l. c #AAA5B5",
"z. c #A6A9B1",
"x. c #ACACB3",
"c. c #A6A3BA",
"v. c #AAA5BA",
"b. c #ADAABC",
"n. c #B1ADB3",
"m. c #B1ACBC",
"M. c #B3A7B9",
"N. c #ADB1B4",
"B. c #AFB0B9",
"V. c #B2B1B6",
"C. c #B3B3BC",
"Z. c #BAB4BC",
"A. c #BABCBD",
"S. c #B7B7B8",
"D. c #B0A8AD",
"F. c #C2BBBD",
"G. c #BBC1BF",
"H. c #AEAAC1",
"J. c #AAA5C0",
"K. c #B2ADC2",
"L. c #B8AFC9",
"P. c #B5B2C4",
"I. c #B9B4C5",
"U. c #BCBAC5",
"Y. c #B7B1C9",
"T. c #BBB5CA",
"R. c #BDBACA",
"E. c #B7B8CD",
"W. c #BDB7D1",
"Q. c #AFB1C2",
"!. c #C2BECC",
"~. c #C6BDC4",
"^. c #C2BED3",
"/. c #BDC2C3",
"(. c #C1C4C4",
"). c #C5C3CC",
"_. c #CAC4CC",
"`. c #CAC9CC",
"'. c #C7C8C8",
"]. c #D1C8CC",
"[. c #C5C2D2",
"{. c #CAC6D4",
"}. c #CDCBD5",
"|. c #CECBDB",
" X c #C8C5DB",
".X c #D3CBD4",
"XX c #D1CEDC",
"oX c #D9CED7",
"OX c #DAD2D5",
"+X c #D5D3DC",
"@X c #DDD4DA",
"#X c #DAD7D9",
"$X c #E2D6DB",
"%X c #E3DADD",
"&X c #E9DCDE",
"*X c #CECDE4",
"=X c #D2CEE2",
"-X c #D5D2E3",
";X c #DBD4E4",
":X c #DCDAE4",
">X c #DAD6EA",
",X c #DEDAE9",
"<X c #D5D4E9",
"1X c #D9DAF2",
"2X c #E5DDE4",
"3X c #E9DEE3",
"4X c #E1DDEA",
"5X c #E5D9E4",
"6X c #E2DEF2",
"7X c #E4E0E5",
"8X c #EAE1E5",
"9X c #E5E3EC",
"0X c #EBE5EC",
"qX c #E9E8EF",
"wX c #F1E7EA",
"eX c #E5E4F2",
"rX c #E9E7F2",
"tX c #EAE6F5",
"yX c #EBE9F1",
"uX c #ECEBF2",
"iX c #EDE9F3",
"pX c #ECEBF5",
"aX c #E9E6FA",
"sX c #EDEBFB",
"dX c #E6E6FB",
"fX c #F0EEFA",
"gX c #F3EDF4",
"hX c #F4F2FC",
"jX c #F8F7FD",
/* pixels */
"g g g g h b.fXrXyXhXjX9X9X9X9X9XyXfXhXhXhXyX:X9X;X:XrX+X(.}.jX9X+X+X+X:X}..X+X+XuXuXuXuXuXuXuXuXuXuXuXuXuXuXuXuXfX9XC.V.",
"g g g g q.k.E J C C T `.yXyXuXuXyXyXyXpXpX+X9X:X:X:XpX;Xx.U.:XhX:XqXuX9XuXqX9X4XuXuXuXuXuXuXuXuXuXuXuXuXuXuXuXuXhXhX4XC.",
"g g g g M p a i d B U.:X9X9XqX9X9X9X9XrX:X4XXXrX:X4XpX;Xx.}.:X}.9X:X:XuX9XqXpXhXuXuXuXuXuXuXuXuXuXuXuXuXuXuXuXuXgXyXhX9X",
"g g g g i i i j C.9XhXyX:X:X:X:X:X4X9XrX:XXX:XrX:X4XpX;XC.I.yX9X+X;X:X:XyXqXqX9XuXuXuXuXuXuXuXuXuXuXuXuXuXuXuXuXpXgXhXfX",
"h h h h p h K +XhXrXpX9X:XXX+X+XrXpX+X:X!.4XrXtX9X|.4XrX{.V.+X+X9X4X;X_._.+X:X9XrXjXyX9XyX9X9XyXyX9X9XyXyXyXyXyX9XqXyXqX",
"j p i h B K.tXsXeXtX}.}.rX+XR.,XfX_.+X9X-X9X}.rX,X[.:XpX:XI.U.+XrXtX;X{.4X.X+XuX9X4XpXrXrXpXpXrXqXuXuXqXqXqXqXqX:X9XqXyX",
"N N o.P.6XaXsX4XfX-XR.:XC.m.:XsX[.|.sXpX9X[.4X:XR.!.:X:X9X}.m._.rXfX}.!.uX}._.4X9X}.:XyXyX9X9XyXyX9X9XyXyXyXyXyXqX:X:XuX",
">X6XaXhX6XaXaX,X=XR.[.R.0.:X4XR.I.9XtX9X).|.9X+Xd.}.tX{.-XpX!.x.4XrXU.C.9X{.!.{.rX+X(.9XyXXXXXyXyX+X+XyXyXyXyXyX9XyX7X+X",
"H. X=X=X<X X^.R.k.m.b.0.[.,X[.b.|.eX4X[.l.eX}.R.l.{.eX,X|.R.4X{.!.,XP.P.4XXXm.P.4X-XR.).9X:XI.[.4X9X_.!.,X9X9X4XqXyXqX+X",
"g O.K.v.b.P.Y.P.v.P.3.K.>X|.b.m.,X4X|.m.).|.P.T.l.{.eX,XXXm.i.{.XX!.-.K.=X Xm.m.XX-X!.I.).tX{.I.[.rXrXm.R.+XrX+X}.:X4XuX",
"h l P w.b.T.Y.i.b.i.q.[.>XT.0.R.4X-XR.k.-X!.l.P.k.{.eX,XP.R.l.T.|.|.0.K.W.^.b.l.!.|.U.I.U.}.rXm.I.}.4XXXb.U.).:X+X(.+X9X",
"h h g z ! i.b.9.0.H.0. X^.K.k. X-X[.m.l.XXb.Y.b.k.{.eX,XT.T.P.R.^.[.0.T.Y.^.K.v.!.R.b.U.R.R.>X[.k.R. X4Xb.Y.T.R.+X!.R.+X",
"h g g g i p O.o.K.i.b.H.R.v.v.R.P.T.i.b.[.v.P.K.i.|.6X[.R.I.p.K.P.I.i.k.K.L.K.b.I.m.b.l.R.P.T.{.k.Y.b. X{.v.T.P.U.U.R.R.",
"z l g i l 3.i.6.K.i.b.H.T.k.c.T.b.v.! b.K.v.P.0.i.[.>X[.I.K.i.m.P.I.i.k.K.R.Y.v.Y.I.P.m.I.P.T.!.b.v.Y.^.^.v.P.P.T.T.T.T.",
"z z l j 2.b.i.K.K.i.b.b.P.i.i.P.b.0.! i.v.y.b.6.y.T.XX[.I.K.i.m.P.I.p.c.K.W.H.3.v.P.T.b.m.P.T.T.K.k.Y.Y.R.b.b.P.P.P.P.P.",
"I O.6.0.c.K.H.H.H.i.v.b.K.0.0.K.K.9.c.7.K.4.i.y.y.P.{.[.I.K.i.b.P.I.i.c.2.v.J.5.7.b.K.i.v.K.T.K.b.v.H.P.T.b.c.P.K.K.P.P.",
"| o.0.v.k.b.k.P.b.i.v.b.v.3.0.K.b.i.v.t.R.4.9.4.i.K.P.b.I.m.i.b.P.P.y.O.9.w.W.J.2.i.R.T.p.H.P.K.K.0.P.b.K.K.c.K.K.K.H.K.",
"k.0.6.o.0.O.i.b.b.k.v.b.i.0.0.K.0.4.y.4.v.7.4.%.i.M.m.m.I.m.k.b.o.m.0.v.p.i.J.J.v.i.J.T.k.v.K.K.Y.i.q.K.H.b.i.K.v.K.Y.Y.",
"0.0.0.0.O.| k.v.v.i.v.b.9.v.q.K.X.L L N 7.X.! 3.v.c.M.P.T.b.k.l.o.y.y.0.w.I I Y.5.v.2.L.K.i.b.K.Y.p.o.b.v.v.i.H.p.K.K.c.",
"L P G G P k.b.v.v.k.c.b.6.K.7.H.G G 3.3.q.P N i.M.i.c.T.T.b.l.l.b.6.k.G l F I p.H I c.7.K.k.v.K.K.k.7.q.k.k.0.v.i.H.i.X.",
"h j k a 6.b.b.k.b.l.7.c.| o.p G q.[.T.aXw.9 I ! m.b.q.b.!.R.d.m.l.0.| q.Y.z F J.X.g l t.p.p.4.v.b.b.i.i.i.K.6.k.t.v.v.t.",
"k j j M l.b.b.v.b.k.3.0.o.3.p I [.sXq.X.N e M c.q.m.l.l.m.m.x.{.d.o.P.P.aXN e ! <XY.G k ~ 5.! X.K.v.%.0.7.k.7.p.p.v.v.p.",
"M k j O.I.q.| | m.k.o.%.o.b.6.0.hXdXP 1 y p l  Xb.!.m.l.d.m.b.+XU.[.-XN F f p I sX<X[.a G v.7.J 0.c.O.q.3.9.0.p.v.p.p.p.",
"N k N 0.K M N ` m.d.| | | O.Y.T.eXdXI k y h M ,X:X.Xm.Z.n.l.l.+X9XaX|.k p f p P 6XaX-Xz 9.M.y.y.L b.%.7.X.3.i.p.i.5.5.i.",
"x x G K v M v o.b.l.R.T.%.q.[.,XaXsXq.6.j G q.aX4X9X+Xx.I._.y.[.9XrX|.( l p P 2.eX>XP.%.y.l.7.0.3.| | O.3.O.y.p.i.X.I X.",
"v j v j v v j x.U.U.:XT.7.x.[.aX|.dX-X{.eX,X[.sX;XqXoXZ.m..X+Xb.9XrX-Xk.R.k.Y.R.tX9X{.x.l.l.%.7.| J J 6.%.L p.p.t.p.! ^ ",
"/ V v d x j C V.y.x.:Xu.d.-.4X4X:X-XsX|.XXI.{.:X4XiX.X+X.X).4X.X9XyX4X[.>XsXU.:X4X9X+X!.I.l. .7.o.E J 0.y.%.p.p.5.9.X.L ",
"z.*.[ V v x 8.7.7.y.:Xm.;.%..X;XiX4X+X.X_.@X5XgX8X.Xf.@X2X:X2X4X9XqX:X_.U.).}.{..X@X+X_.!.d.E 7.7.0.E 7.I.K.9.p.! H 3.^ ",
"d.z.a.-.V K *.8.f.8.n.{.@.' .X4X4X4X4X2X3X3X3X3XgX_.r.wX8X2X2X2X3X8X%X%X@X@XOX@X%X@XOXoX.Xm.m.4.L 7. .o.T.9.9.i.t.L R L ",
"z.8.8.d.8.q.0.d.x.x.7._.Z.C Z.0X2X2X2X3X3X3X3X3X8X@XD.~.3X3X2X2X2X3X2X%X%X$X$X%X%X%XOXoXZ.y.&.E B %.o.6.m.7.t.t.t.~ ^ ^ ",
"a.8.8.z.x.x.k.d.l.d.` f.hXZ.Z.3X3X3X3X3X3X3X3X3X%X8X_.V.3X3X2X2X3X&X&X$X$X$X$X$X$X@XoX.Xu.7.J J J E 6.m.i.7.y.9.t.4.^ ^ ",
"-.a.z.d.k.x.x.m.d.` C T .X5X~.0X3X3X3X3X3X3X3X3X%XwX8X].3X3X2X2X&X&X&X$X$X$X$X$X@XoX.X_.e.e.B J 7.l.l.%.7.4.i.7.9.t.~ ^ ",
"d.z.z.d.b.b.x.x.d.8.] C T d.Z.qX8X3X3X3X3X3X3X8X8X8X8X8X2X2X%X%X&X8X$X$X$X$X$X$X@XoX.Xe.e.u.7.m.u.&.~ L %.%.4.7.t.9.X.H ",
"z.x.x.z.a.:.l.x.V.x.r.=.T T Z.qX8X8X3X3X2X2X3X3X2X8X8X8X8X8X8X8XgX$XwX$X$X$X$X$X@X+XM.7.Y 7.e.4.$.t.%.J E ~  .X.~ ~ ^ R ",
"x.x.d.8.[ ) -.d.x.x.n.f.8.@.h.2X8X8X3X3X2X2X2X2X2X%X2X2X2X2X2X2X%XOXF.OX$X$X$X5X5X!.e.&.+. .$.~ t.y.E J ~  .$.$.~ ~ X.%.",
"C.x.:.` K / K ] -.x.V.h.S.r.` Z.8X8X3X3X2X2X2X2X@X@X@XOXOXOX.XoXwX].].$X$X$X$X5X+Xu.7.%.e.y.e.z 4.y.E E ~ ~ X.$.$.~ ~ %.",
"r.=.[ ) ` ) T K ) ] 8.V.n.f.=.s.Z..X2X2X%X%X2X8X0X2XOXOX3X2X8X2X%X$X@X$X%XoXoX.XZ.u.+.7.y.M.+.m %.~ R R W ~ ~ +.+.~ ~ ~ ",
"] ) ) [ _ ) ) ) K T [ -.s.n.f.Z.f.r._.8X0X0X8X2X@X0XOXj.r.].8X@X@X@X@X@X$X3XoXn.%.&.y.E e.u.~ Y W Y R R W ~ ~ +.+.~ ~ ~ ",
") T ) _ _ _ _ ) ` ) K ` ] r.h.V.h.f.=.h..X2X8X8X@X2X2X@X_.@XOX.X@X@X@X@XoX.XV.&. .7.y.B $.y.W B J Y Y R W W ~ +.+.~ ~ W ",
"[ _ ) ) _ _ _ _ [ ] [ ) K ) =.d.V.n.h.@.{ ~.@X0X@X2X2X2X0X2X@X%X@X@X@X@X~.<.' ' e.l. .B W &.Y B J Y R R W W ~ +.+.~ ~ W ",
"] _ _ ] [ _ _ _ [ [ [ [ [ [ ) [ 8.d.n.T ] =.@.`.7X%X%XOX.X%X%XOX8X%X].r.Q m m e.L 9.R ~ W J B W Y Y Y Y W W W W  . . . .",
"] ] { { { ] _ _ [ [ [ _ [ ) ) K _ -.s.@.r.f.C C h.%X%XOX%XOXOX8X].r.A m m ' ' @.N ! G E W R Q W R R R R ~ ~ ~ ~ +.+.+.+.",
"{ =.=.=.@.{ ] ] ] ] ] ] [ [ [ ) C [ | 6.C.m.T _ n _ F.#X%X&X'.j.A m C { r.;.m a l G ! %.W +.} W W W W W +.+.+.+.%.%.%.%.",
"=.=.=.=.=.=.=...=.=.=.=.@.......8.o.z l M g i s.j.D n =.1.,.C m C ] 8.8.e.e.a . % 1 g N W #.#.W W W W W +.+.+.+.%.%.%.%.",
"n.n.n.n.f.f.f.f.x.x.n.x.x.x.x.x.d.J > > @ % 1 8.j.>.D C n C _ =.u.y.9.7.%.O.h # @ . . r &.#.#.#.+.+.+.+.+.+.+.+.+.%.&.&.",
"x.h.h.x.x.x.N.N.N.x.x.h.V.V.V.V.V.k 7 , 3 @ 1 :.x.h.s.8.>.-...[ G z f 9 > > $ X X $ X a &.#.#.#.%.%.%.%.%.%.%.%.+.%.&.&.",
"g.g.g.g.g.g.g.g.h.h.h.h.x.x.x.x.x.| < q 4 & % k K V j h i e 1 % X X X X X X $ > < o e X.&.#.#.#.&.&.&.&.&.&.&.&.+.%.&.&.",
"g.g.g.g.g.g.g.g.h.h.h.h.h.h.h.h.V.v.f w w 3 % . X X X X o @ $ $ @ @ : : X o X   O : ! 7.&.#.#.#.e.e.e.e.;.;.;.;.+.%.&.;.",
"x b b b Z b V b Z Z Z S =.g.A.'.R.E.l : 8 8 7 < & & = = & & & & & & & & o o o o : X M k.y.r.j.s.f.d.y.y.;.8.r.r.;.8.r.r.",
"s x x s d x d x x Z ,.N.G.G./.N.Q.l > : & , 3 8 - & & = * * * * * & O O O + o X @ X . 6.;X}.'.'.'.`.}.}.}.`.'.'.(.(.(.G.",
"u u u u u s d / C K *.a.:.>.*./.E.f 9 5 & * * 2 2 = * * , , , , , = o O o o @   X 0 i | V.S.A.`.'.'.(.(.'.A.S./.G./.(.(.",
"d d V *./ :.C.C.g.h.V.S.N.N.N.-XI w 7 8 5 , * & * 2 , * 6 6 6 8 8 3 : o o X   g 6.H.-XXX_.:.) K C V b x x s s b b Z C S ",
":.A.U./.8.:./.U._._._._.(.x.9XI.3 w w 3 8 6 5 * 2 3 3 3 8 8 8 5 5 : o o $ X | -X|.=X XC.d.0.:.d.d.8.-.o.6.8.a.z.g.[ *.>.",
"A.N.A.`.#X:X:X7X9X9X9X9XU.x.pX0.3 w w 3 6 8 3 , 3 3 4 4 6 6 5 = o O   X $ P =X X[.k.o.E o.z._.+X-X-X:X>X,X,X,X,X:X+XN.A.",
"h.4X7X9X7X9X+X:X4X4X4X4XC.}.rX0.4 q w 4 3 3 3 5 3 4 4 4 3 3 , o & o o X I =X|.[.o.| 6.b.).{.|.|.}.|.+X-X+X+X+X+X+X:X}.l.",
":X:X#X:X9X9X7X4X5X5X,X:X[.-XdX9.4 q w 4 2 2 5 3 3 7 3 3 5 , o o X o   P -X=XR.o.7.m.[.|.XXXX|.|.-X-X-X+X}.XX-X:XXXXX-X{.",
":X5X;X:X:X:X:X5X4X4X4X4X-X>XdXc.6 q w q 4 3 2 5 : ; o o O o   X o o c -X>XT.6.m.=XXX=X=X=X=X-X-X-X-X-X-X:X:X:X;X;X;X:X:X",
":X5X;X:X>X,X>X4X4X4X4X4X>X<XeXc.- q 6 6 6 4 4 3 o O     X   X $ X N <X*XT.i. X<X=XXX=X=X=X=X-X-X-X-X-X-X:X:X:X:X;X;X:X:X",
":X5X;X:X,X,X,X,X,X4X4X4X>X>X>X Xt 4 4 4 4 4 6 4 0 < : $ X > % % F 1X<X XY.=X<X|.=X=X=X=X=X=X-X-X-X-X-X-X:X:X:X:X:X:X:X:X",
":X5X;X:X,X,X,X,X>X>X,X,X>XeX-XdXU - 6 6 4 4 4 4 8 7 0 < < 9 0 I 1X*X*X*X>X>X|.|.=X=X=X=X=X=X-X-X-X-X-X-X:X:X:X:X:X:X:X:X"
};
