/* XPM */
static char *xpm_[] = {
/* columns rows colors chars-per-pixel */
"64 35 256 2 ",
"   c black",
".  c #010101",
"X  c #020202",
"o  c gray1",
"O  c #040404",
"+  c gray2",
"@  c #060606",
"#  c #070707",
"$  c gray3",
"%  c #090909",
"&  c gray4",
"*  c #0B0B0B",
"=  c #0C0C0C",
"-  c gray5",
";  c #0E0E0E",
":  c gray6",
">  c #101010",
",  c #111111",
"<  c gray7",
"1  c #131313",
"2  c gray8",
"3  c #151515",
"4  c #161616",
"5  c gray9",
"6  c #181818",
"7  c #191919",
"8  c gray10",
"9  c #1B1B1B",
"0  c gray11",
"q  c #1D1D1D",
"w  c #1E1E1E",
"e  c gray12",
"r  c #202020",
"t  c gray13",
"y  c #222222",
"u  c #232323",
"i  c gray14",
"p  c #252525",
"a  c gray15",
"s  c #272727",
"d  c #282828",
"f  c gray16",
"g  c #2A2A2A",
"h  c gray17",
"j  c #2C2C2C",
"k  c #2D2D2D",
"l  c gray18",
"z  c #2F2F2F",
"x  c gray19",
"c  c #313131",
"v  c #323232",
"b  c gray20",
"n  c #343434",
"m  c #353535",
"M  c gray21",
"N  c #373737",
"B  c gray22",
"V  c #393939",
"C  c #3A3A3A",
"Z  c gray23",
"A  c #3C3C3C",
"S  c gray24",
"D  c #3E3E3E",
"F  c #3F3F3F",
"G  c gray25",
"H  c #414141",
"J  c gray26",
"K  c #434343",
"L  c #444444",
"P  c gray27",
"I  c #464646",
"U  c gray28",
"Y  c #484848",
"T  c #494949",
"R  c gray29",
"E  c #4B4B4B",
"W  c #4C4C4C",
"Q  c gray30",
"!  c #4E4E4E",
"~  c gray31",
"^  c #505050",
"/  c #515151",
"(  c gray32",
")  c #535353",
"_  c gray33",
"`  c #555555",
"'  c #565656",
"]  c gray34",
"[  c #585858",
"{  c gray35",
"}  c #5A5A5A",
"|  c #5B5B5B",
" . c gray36",
".. c #5D5D5D",
"X. c gray37",
"o. c #5F5F5F",
"O. c #606060",
"+. c gray38",
"@. c #626262",
"#. c gray39",
"$. c #646464",
"%. c #656565",
"&. c gray40",
"*. c #676767",
"=. c #686868",
"-. c DimGray",
";. c #6A6A6A",
":. c gray42",
">. c #6C6C6C",
",. c #6D6D6D",
"<. c gray43",
"1. c #6F6F6F",
"2. c gray44",
"3. c #717171",
"4. c #727272",
"5. c gray45",
"6. c #747474",
"7. c gray46",
"8. c #767676",
"9. c #777777",
"0. c gray47",
"q. c #797979",
"w. c gray48",
"e. c #7B7B7B",
"r. c #7C7C7C",
"t. c gray49",
"y. c #7E7E7E",
"u. c gray50",
"i. c #808080",
"p. c #818181",
"a. c gray51",
"s. c #838383",
"d. c #848484",
"f. c gray52",
"g. c #868686",
"h. c gray53",
"j. c #888888",
"k. c #898989",
"l. c gray54",
"z. c #8B8B8B",
"x. c gray55",
"c. c #8D8D8D",
"v. c #8E8E8E",
"b. c gray56",
"n. c #909090",
"m. c gray57",
"M. c #929292",
"N. c #939393",
"B. c gray58",
"V. c #959595",
"C. c gray59",
"Z. c #979797",
"A. c #989898",
"S. c gray60",
"D. c #9A9A9A",
"F. c #9B9B9B",
"G. c gray61",
"H. c #9D9D9D",
"J. c gray62",
"K. c #9F9F9F",
"L. c #A0A0A0",
"P. c gray63",
"I. c #A2A2A2",
"U. c gray64",
"Y. c #A4A4A4",
"T. c #A5A5A5",
"R. c gray65",
"E. c #A7A7A7",
"W. c gray66",
"Q. c #A9A9A9",
"!. c #AAAAAA",
"~. c gray67",
"^. c #ACACAC",
"/. c gray68",
"(. c #AEAEAE",
"). c #AFAFAF",
"_. c gray69",
"`. c #B1B1B1",
"'. c #B2B2B2",
"]. c gray70",
"[. c #B4B4B4",
"{. c gray71",
"}. c #B6B6B6",
"|. c #B7B7B7",
" X c gray72",
".X c #B9B9B9",
"XX c gray73",
"oX c #BBBBBB",
"OX c #BCBCBC",
"+X c gray74",
"@X c gray",
"#X c gray75",
"$X c #C0C0C0",
"%X c #C1C1C1",
"&X c gray76",
"*X c #C3C3C3",
"=X c gray77",
"-X c #C5C5C5",
";X c #C6C6C6",
":X c gray78",
">X c #C8C8C8",
",X c gray79",
"<X c #CACACA",
"1X c #CBCBCB",
"2X c gray80",
"3X c #CDCDCD",
"4X c #CECECE",
"5X c gray81",
"6X c #D0D0D0",
"7X c gray82",
"8X c #D2D2D2",
"9X c LightGray",
"0X c gray83",
"qX c #D5D5D5",
"wX c gray84",
"eX c #D7D7D7",
"rX c #D8D8D8",
"tX c gray85",
"yX c #DADADA",
"uX c gray86",
"iX c gainsboro",
"pX c #DDDDDD",
"aX c gray87",
"sX c #DFDFDF",
"dX c gray88",
"fX c #E1E1E1",
"gX c #E2E2E2",
"hX c gray89",
"jX c #E4E4E4",
"kX c gray90",
"lX c #E6E6E6",
"zX c #E7E7E7",
"xX c gray91",
"cX c #E9E9E9",
"vX c #EAEAEA",
"bX c gray92",
"nX c #ECECEC",
"mX c gray93",
"MX c #EEEEEE",
"NX c #EFEFEF",
"BX c gray94",
"VX c #F1F1F1",
"CX c gray95",
"ZX c #F3F3F3",
"AX c #F4F4F4",
"SX c gray96",
"DX c #F6F6F6",
"FX c gray97",
"GX c #F8F8F8",
"HX c #F9F9F9",
"JX c gray98",
"KX c #FBFBFB",
"LX c gray99",
"PX c #FDFDFD",
"IX c #FEFEFE",
"UX c white",
/* pixels */
";.v.c.z.'.sX^.B *.).I.P.>X:X6X/.N.Z.[ N.:XV.H '.p.( >.u.J.B.9.4.s.'.rX<X:X,X>X,X,X1X=XaX7X<X2X%X3XuXrX2X7X,X7X6X6X5X4X2X:X=X=X;X",
",.v.c.b.{.hX/.f  .}.D.C..X{.#X_.b.`.P.D..X}._ !.L.9.^ -.f.W.7.n.e.i.,XfX9X4X7X7X,X3XtX[.A.6.3.p.x.Z.3XdX4X7X9X3X2X5X9X0X6X1X,X,X",
"3.c.V.d.R.lXZ.b 4.Y.N.W.,.3.|.Y.h._.*XC./.rXo.(.%XR.1.E :.b.i.N.s.u.c.Q.^.7XqX9XwX6Xn.{ / { / E T _ 9.yXuX9X5X7X7X9XqXqX7X3X3X5X",
"2.Z.v.I.k.B.S.n 4.T.L.J.].[ 6.L.c.^.%XV.T.tX .I.&XZ.w.r.Y 2.2.n.f.g.g.q.=.oXkXeXyX]...9.i.1.L V P K m e.fX5X9X8XyXuXuXtX0X5X5X7X",
"8.S.D.N. Xv.q.2.y.Q.m.T. X@X%.p.N.Q.OXG.K.<Xt.Z.].E.-.j.1.| <.g.e.w.Z.#.! m.jXfXgXrXOX>X>X!.7.Q ' O.o.L -XaXwXrXiXsXhXkXdXtX9X7X",
"i.m.M.4.8.`.Q.D.N.D.M.L.`./.z.u.C.m.G.D.H.%XXXU.!.^.p.+.P.i.} +.v.Z.S.q. .8.tXpXpX8XE.c.i.a.M.u.>.>.7./ .XbXpXpXpXdXkXcXzXfXuXtX",
"y.m.L.y.v.z.P.^.H.S.A.F.}.>Xq.q.K.i.2.B.H.|.1XY.~.'.h.n.{.U.,. .#.q.t.b.#.1.<XfXdXL.J m Y 1.f.,.t.&..._ 0XhXxXpXhXgXgXjXjXhXfXfX",
"u.J.B.Y.m.8.l.V.H.R.n.D.,X^.i.a.G.s.| C.J.'. XA.R.oXk.i. Xt.r.5.[ -.8.t.0.3.z.pXlXJ.8.1.q.r.;.-.&.t.1.2.lXjXfXzXzXjXgXhXjXjXhXgX",
"d.J.Z..X(.s.G.l.k.e.S.W.VX5.B M.H.6.W D.M.A.].A./.}.B.d..XK.l.G.t.I.@.r.u.B.3.D.hXiX'.h.p.,.+.X.} +.L !.cXkXgXkXjXjXlXhXjXlXgXhX",
"l.K.M.!.z.E.b.Z.A.A.v.S ] A.I.oX<X).G. X{.p.d.D.).,Xm.p.XXW.J.I.g.~.5.,.9.r.0.1.:XuX' Y d.#.X._ _ P D +XxXfXgXhXcXgXgXfXdXaXyXaX",
"k.G.I.F.E / N.$X*XQ.j.i.~ ! n.n.m.V.w.r.9.7.x.L.|.:X XT.*Xv.m.A.S.Q.3.e.%.8.4.4.OXZXm.x 3.<.] Q Q _ K '.CXsXlXhXdXsXlXkXpXtXyXdX",
"z.P.n.Z.m.3.U } 1XQ.c.E.0X..} s w 5 r y ; 2 A } >.a.c.}.!.B.J.7.f.XXr.N.} [ e.e.H.6XjX*.9.[ D H D ~ #.+.4XsXsXhXzXfXdXtX9X0X7X4X",
"z.F.C.V.P.D.x.*.oXJ.h.C.,XQ.yXm.3.=.#.8.<   1 = k U ! ' =.u.f.G.S.}.C.v.#.n =.y.4.D.bXY.L F m c { ( H C h.bXaXsXfXaXfXpXrXeX9X8X",
"f.N.V.t.3.F.K.h.P.N.h.J.;X&X`.M.B.|.~.N.p.J $ < 4 e k c ~ ' 4.y.b.l.D._.h.J B 4.7.c.&XpXg.m f T U J H [ d._.1XdXgXgXgXuXwX7X4XeX",
"0.M.M.@.p.w.u.g.N.D.f.B.@X^./.s.g.'.|.t./.,XV s 2 5 a x n E P ` 6.7.*.H.A.h.6.t.1.i.w.&XMX%.~ L A U =.z.U.}.Q.#XyXlXlXtXtXrX6X0X",
"} >.r.$.*X+XP o.Q.l.j.v._ t.].x.a.'.`.u.N.OXv.c.2.k & p k l e 0 a G ~ ` :.e.I.I.g.b.P.{.] g m j ' 0.j.a.b.(.I.r.&./.sXaXtXrX7XwX",
"[  .+.;.[.}.^ @.D.n.x.v.-.G #.D.j.Q.L.s.V.[.oXB.{._.T s > $ > 5 > % a z V E W X.@.5...2.( D R 6.i.g.b.b.p.8.D B ] 4.(.lXaXiXuXrX",
"| o.-.$.Y.~.T &.H.z.p.A.[.z.o.z.n.A.H.p.x._.!.a.L.W.i.Z.S.>.6 o = , = 1 e N M x S ' L 6.;.7.p.i.i.J.g.a...i J +.0.! %.lXfXfXkXaX",
"5.-.X.$.I.S.G X.N.z.p.U.{.).2.p.V. .-.k.z._.R.d.!.R.>.f.XX;X!.1.5   ; 2 = 4 b B K &.>.2.<.2.j.d.F.~.5.%.F %.6.*.] J A &XfXjXxXhX",
"a.a.r.4.-.&.{ O.C.p.i.J.XX^.&.g.x.G.9.z.k.s.).u.U.W.h.7.`.K.Z.`.c.$.< # 3 ; r s ;.5.r.w.$.y.h.t.t.<.t.} ..&.5.4.*.| N m.NXsXpXjX",
"5.c.x.g.8.&...#.7.g.C.B.H.{.1.u.j.!.k.s.n.P :.b.R.Q.B.k.oXb.7.%.l.0XZ.E @ & : I w.%.c.d._ h.L.x.0.r._ V J L _ 1.<._ c @.cXaXfXfX",
"o.O.6.z.k.a.5.6.q.f.z.x.6.} ..x.C.` 2.a.M.l.| i.R.~.n.x.].H.k.*.k.%XG.#Xx.s < J &.;.b.5.~ ..d.X.H K 3 F 7.$.O.[ _ T z H eXlXzXhX",
"m.h.4.*.,.e.2.*.9.r.l.s.t.y Z &.t.c *.F.s.S.;.9.(.D.8.R.@X,.%.,.l.OXd.A.2XZ.c.i.4.5.D.&.;.u.! A R ^ G ` w.*.%.[ #._ m J pXxXaXlX",
"H.W.E.N. .] w.e.e.1.k.u.W ! ` :.2.K #.r.N.L.;.w.^.m. .#.=X6.a w.M.>XM.R.`.3.G.y.<.z.V.#.u.@.-.~ Q [ T P 6.*.@.X.T P F / gXkXaXgX",
"2.h.J.P.C.l.5.3.7.0.l.g.@.#.1.%.>.R ` @.>.a.6.u._.U.y.$.{.h.#.).N.OXK.]./.7.6.+.+.m.v.$.e.9.3.{ ;.X.Z t ..d.D.&Xs.N v <.cXdXxXiX",
"=.4.t.9.0.K.*X.XN.8.o.1.C.g.=.@.o.T / &.O.{ | &.C.L.q.3.@Xa.:.@Xx.oXl.(.Z.B.t.o.~ n.b.{ 0.C.b.#.| ( k v Q.0.1.;.n.{ i *.nXaXjXaX",
"h D +.8.u 4 c 5.:X6X;XG.! ;.c.b.d.<.X.o.X.! X._ ' a.j.2.+X].c.}.z.XX5.V.y.C e.^ ` C.6.K X.6.;.Y Q F q K K.7.V s. X[ j ' bXdXaXfX",
"G k ^ ;.{ U f X.oX/.XX;XY a l U 2.C.b.p.:.1.=.) ` i.b.d.}.Y.I.].c.OXf.b.c.C ]  .^ d.Q H W D n A I D p M v.V.g.B.[.T n { MXdXaXgX",
"^ W 2.3.u.h.#.u.E.OX<X'.X...] V j f K =.x.B.j.q.-.t.z.j. XL.Q./.z.XXu.L.P.;.8.R ~ @.c M b v p n s b U L n.*X3.t.S F u [ vXuXcXgX",
"..;.s.;.G T ..B.^.J.W.K.k 0 O.(.j.=.^ m l V ..s.m.c.n.k. XM.6.3.f./.x.Y.`.y.t.+.n B M h < N N n F 3 g ~ @.U | ( =.N s E fXzXgXxX",
" .&.l.! 7 7 W t.T.W.(.R.D m e.rXrX*.^ XXl.&.! C } m.A.A.{.S.a.( z.F.g.R./.v.7.{ ^ V D z u S F u S #.y.e.k.T b O.T } l K VXfXgXhX",
"| ;.c._ 4 j R d.I.c.J.Z.! P M.wXwX:.{ hX3XP ( Q.z.S.B.m.C.n.h.5.6.,X$X~.Z.,.:.;.o.E E A k 0 W  . .L.u.:.#.>./ W U z > X.CXhXjXxX",
"] <.j.| ! b ~ -.g.I.K.F.o.K N.2X9X@.h.zX=X( ! a.c ! ` :.v.r.^ 5.e.u.^.dXB.R -.{ E ! J M ~ i.x.,.A.b.s.3.&.H x K z l % q.SXfXjXcX",
"%.:.l.j.x.m F P <.V.B.V.&.~ v.1X4X=.f.wX-X3.@.4.4.3.o.Y A H ! 5.;.H u A ,.p.:.P Z  .i.N.^..Xh.F T @.n.8.N r p , 3 > 3 %XNXkXkXjX",
"| 8.h.j.' x q B d.F.F.M.Y S s.%XOX+.s.7X:Xx.D.oXE.q.o.,.-.1 o.s._ U x = < W l.=X[.Z.v.p.3.$._ ' I z A V s f x 0 7 * $.FXlXbXjXvX"
};
