/* XPM */
static char *_98ac9893c7f4dc1a1b664168d0cf12eDSPrL2407cNEUmdW[] = {
/* columns rows colors chars-per-pixel */
"64 64 63 1 ",
"  c #403018",
". c #6D4824",
"X c #915D34",
"o c #553C1C",
"O c #382C14",
"+ c #28200C",
"@ c #483818",
"# c #754C28",
"$ c #5D4020",
"% c #B6AE00",
"& c #9D9D00",
"* c #B65500",
"= c #FF8920",
"- c #FF7900",
"; c #E66D00",
": c black",
"> c #302410",
", c #895930",
"< c #5D5D5D",
"1 c #656565",
"2 c #717171",
"3 c #81502C",
"4 c gray49",
"5 c #8D8D8D",
"6 c gray60",
"7 c #484848",
"8 c #555555",
"9 c #202020",
"0 c gray22",
"q c #DE8955",
"w c #CA7D4C",
"e c #FF9D61",
"r c #FFB281",
"t c #BE7948",
"y c #2C2C2C",
"u c #FFBA91",
"i c #FFBE9D",
"p c #D28150",
"a c #FFC6A5",
"s c #F2955D",
"d c #AA6940",
"f c #FFA571",
"g c #B67144",
"h c #9D6138",
"j c #FFD6BE",
"k c #EA8D59",
"l c #CEC600",
"z c #E6DA00",
"x c #A1653C",
"c c gray87",
"v c #D60000",
"b c #D2D2D2",
"n c #7D0000",
"m c gray76",
"M c #AA0000",
"N c #990000",
"B c #A50000",
"V c red",
"C c #890000",
"Z c #710000",
"A c #650000",
"S c #4C0000",
"D c #9D4C00",
/* pixels */
"                                                                ",
"................................................................",
"XXXXXXXXXXXXXXXXXXXXXXXXXXXXXXXXXXXXXXXXXXXXXXXXXXXXXXXXXXXXXXXX",
"oooooooOo+OooooooooooooooOo+OooooOo+OooooooOo+OoooooooooooOo+Ooo",
"@@.####oX+oX$@@@@##@.@.@@oX+oX#@#oX+oX$@@@$oX+oX@#@@#@#@##oX+oX.",
"@@.###$oX+oX.@@@o##@.@.@@oX+oX#@#oX+oX#$@$#oX+oX@#@@#@#@##oX+oX.",
"@@$##%%%%%%%%%%%%%%%%%%%%%%%%%%%%%%%%%%%%%%%%%%%%%%%%%%%%%&*+oX.",
"o@o.#%=====================-------------------;;;;;;;;;;;**o+oX.",
".@@$#%=@@@@@@@@@@@@@@@@@@@@@@@@@@@@@@@@@@@@@$$$$$$$$$$$$$&*o:>,o",
".@o@$%=@<122222222222222222222222222222222222222222222222%*o:+3o",
"#o@@o%=@1455555555555555555555555555555555555555555555555%*o:+3o",
"#o@@@%=@1566666666666666666417777777456666666666666666666%*o:+3@",
".#@@@%=@1566666666666666668779999999997746666666666666666%*o:+3@",
".#o@@%=@1566666666666666687990080000099976666666666666666%*o:+3@",
"$##@o%=@1566666666666666qw2000885480780099666666666666666%*o:+3@",
"o###o%=@1566666666666666errr2wt2451y1210y9766666666666666%*o:+3o",
"@.##$%=@156666666666666qruuir2pt880y7877y9916666666666666%*o:+3o",
"@.###%=@156666666666666eruuar2p0000y0000y9976666666666666%*o:+3o",
"@$.##%=@15666666666666erruarrrs0000y0000y99y6666666666666%*o:+3.",
"@o.##%=@15666666666666wdtfarrrrghh,3000y999y6666666666666%*o:+3.",
"@@$##%=@156666666666666OO,tarrufsdddd30999yy6666666666666%*o:+3.",
"@@o##%=@15666666666666uw7tfsrafssqssdX$999y76666666666666%*o:+3.",
"o@o$o%=@1566666666666ujrqfrrrfsske$ds$$99y726666666666666l* :+3.",
"o@@o@%=@156666666666ajafequrfsskqfp3f$$99y266666666666666l* :+3.",
"o@@@@%-@156666666666ktttweqeeekqqpdst$$9y7666666666666666l* :+3$",
".@@@@%-@156666666666669$fqfeeskqwefp#$$9y2666666666666666l* :+3o",
".@@@@%-@15666666666666$hrfsfskwtdp,###$$76666666666666666l* :+3o",
".o@@@%-@15666666666666ueerfsswddhtqXX#$$26666666666666666l* :+3@",
"$o@@@%-@15666666666666pfsrfekwdhhgfqt,$$66666666666666666l* :+3@",
"o.@@@%-@15666666666666fufqeqthXhgfffstd##6666666666666666z* :+3@",
"o.o@@%-@15666666666666sfqtdhXXhgqffttX3##4566666666666666z* :+3@",
"@$o@.%-@15666666666666666h,,,hgqfttXXX33o##25666666666666z* :+3@",
"@o.o.%-@1566666666666666666ghggftXXhX,#o33###256666666666z* :+3@",
"@o.o.%-@156666666666666665pggpfXXhhh#o3xxxXX3,#2566666666z* :+3@",
"@@$.$%-@15666666666666655ptppghhgg#o3xggggggghh,#26666666z* :+3o",
"@@o$o%-@1566666666666652pptpwxgg,o3xgggggggggggh,#4666666z* :+3o",
"@@@o@%-@156666666666652#pxppwwg#ohggggdh3hhgggggh3#466666z* :+3$",
"@@@@@%-@156666666666623#pxppwg##xggggdx33hhhh,,,,,3#66666z* :+3.",
"@@@@@%-@156666666666533#p3xpg##ggggggxX#3hh,hhh,,,,#66666z* :+3.",
"o@@@@%-@1566666666662XX#h#x#oxggggggdX3$$ggggghh,33$66666z* :+3.",
"o@@@@%-@156666666666hXX#3#xxXgggggggx3$$ggpggghgh##@66666z* :+3o",
".o@@@%-@156666666665hXX$#,xxgggggggdd3$ggpggphXgh#$@66666z* :+3o",
".o@@@%-@156666666662hXX##xxttwwggggh3$$gpggpghXg,#$@66666z* :+3@",
".$o@o%-@15666666666xhXX#,xttwwttt#h,$$hhgggphXxg,#$@66666z* :+3@",
"..ooo%-$15666666665xxX##xxttwttt#h,,$6cchppgxXgg3$@866666z* :+3@",
"$.$o$%-$15666666662xXXX#xxX#@@tt#,$$6yy8cvp#hXgg#$@266666z* :+3@",
"o..$.%-$1566666665hhXX#,xgtt@@##,$6ycybcccv#Xhgg#$@466666z* :+3@",
"o..$.%;$1566666662dddX#xxttw3d,,$n68yyyy8mMNNXgg#@$666666z* :+3@",
"@.###%;$156666666hhdd##xgttwXd,,nBVcccycy6MNCCX,#@$666666z* :+3@",
"@$###%;$156666666gdXX#3xgtttd,$hNNv6yy8c64NCCnZ#@$$666666z* :+3@",
"@o.##%;$156666666gXdXxXxgttt,$ktw3ov6mm64NCCnZA#@$$666666z* :+3@",
"@o.##%;$15666666qwgX#ghh,,,tkwxkww3ovvMNNCCnZAAS$$#666666z* :+3o",
"@@$#.%;$15666666qpwggghhhhhkkkxxktggooNNCCnZAAS$$##666666z* :+3o",
"@@o..%;$156666666qppqqhhhwwkkwktkkghhooCCnZAAS$$$#d666666z* :+3$",
"@@o.$%;$1566666666qq6qqggtkkttwkkkwhh#oCnZAAS$$,,dt666666z* :+3$",
"@@@$$%;$156666666666666wpppptdhhwwwh,.ooZAS$$$,ddt6666666z* :+3.",
"@@@oo%;$1566666666666666kkppppppppppt,,9n9#,ddt6666666666z* :+3.",
"o@@@@%;$1566666666666666666666666666666666666666666666666z* :+3#",
"o@@@@%;;%%%%%%%%%%%%%lllllllllllzzzzzzzzzzzzzzzzzzzzzzzzzz* :+3#",
"$@@@@%***************************************************** :+3#",
"$o@@@Doooooo                           OOOO                 :+3#",
".o@@@o.+:::::::::::::::::::::::::::::::::::::::::::::::::::::+3#",
".$@@@o.> :+ +++++++++>>>++ :+ >+++ :+ ++++++ :+ ++>++++++++ :>,#",
"$$$$$$$o3+o3o       oooooo3+o3o  o3+o3o   oo3+o3o oo      o3+oX$"
};
